<?xml version="1.0" encoding="utf-8"?>
<!-- Generator: Adobe Illustrator 15.0.0, SVG Export Plug-In . SVG Version: 6.00 Build 0)  -->
<!DOCTYPE svg PUBLIC "-//W3C//DTD SVG 1.1//EN" "http://www.w3.org/Graphics/SVG/1.1/DTD/svg11.dtd">
<svg version="1.1" id="圖層_1" xmlns="http://www.w3.org/2000/svg" xmlns:xlink="http://www.w3.org/1999/xlink" x="0px" y="0px"
	 width="24px" height="24px" viewBox="0 0 24 24" enable-background="new 0 0 24 24" xml:space="preserve">
<g>
	<g>
		<g>
			<path d="M7.625,3.366h2.692v3.028c0,0.186,0.151,0.336,0.337,0.336h1.009V8.75H8.299c-0.186,0-0.336,0.15-0.336,0.336v2.019
				c0,0.186,0.15,0.336,0.336,0.336c0.186,0,0.336-0.151,0.336-0.336V9.422h6.73v1.683c0,0.186,0.15,0.336,0.336,0.336
				c0.187,0,0.337-0.151,0.337-0.336V9.086c0-0.186-0.15-0.336-0.337-0.336h-3.365V6.73h1.009c0.187,0,0.337-0.151,0.337-0.336
				V3.366h2.691c0.187,0,0.337-0.151,0.337-0.336V1.683c0-0.186-0.15-0.336-0.337-0.336H7.625c-0.186,0-0.336,0.151-0.336,0.336
				v1.346C7.289,3.215,7.44,3.366,7.625,3.366z M13.01,6.058h-2.019V3.366h2.019V6.058z M7.962,2.02h8.076v0.673H7.962V2.02z" fill="rgba(255,255,255,1)" />
			<path d="M21.422,18.877V14.47c0-0.186-0.15-0.337-0.337-0.337h-4.711c-0.186,0-0.336,0.151-0.336,0.337v4.374h-1.346V14.47
				c0-0.186-0.151-0.337-0.337-0.337H9.645c-0.186,0-0.336,0.151-0.336,0.337v4.374H7.962V14.47c0-0.186-0.151-0.337-0.337-0.337
				h-4.71c-0.186,0-0.336,0.151-0.336,0.337v4.407c-0.784,0.161-1.345,0.851-1.346,1.649v0.673c0.001,0.93,0.753,1.682,1.683,1.683
				h18.17c0.93-0.001,1.682-0.753,1.683-1.683v-0.673C22.767,19.728,22.205,19.038,21.422,18.877z M16.711,14.807h4.038v4.037
				h-4.038V14.807z M9.981,14.807h4.038v4.037H9.981V14.807z M3.251,14.807h4.038v4.037H3.251V14.807z M22.095,21.199
				c0,0.558-0.452,1.01-1.01,1.01H2.915c-0.558,0-1.01-0.452-1.01-1.01v-0.673c0-0.558,0.452-1.01,1.01-1.01h18.17
				c0.558,0,1.01,0.452,1.01,1.01V21.199z" fill="rgba(255,255,255,1)" />
			<path d="M12,19.854c-0.557,0-1.009,0.452-1.009,1.01c0,0.557,0.452,1.009,1.009,1.009c0.558,0,1.01-0.452,1.01-1.009
				C13.01,20.306,12.558,19.854,12,19.854z M12,21.199c-0.186,0-0.336-0.15-0.336-0.336c0-0.187,0.151-0.337,0.336-0.337
				c0.186,0,0.336,0.15,0.336,0.337C12.336,21.049,12.186,21.199,12,21.199z" fill="rgba(255,255,255,1)" />
			<path d="M8.635,19.854c-0.558,0-1.01,0.452-1.01,1.01c0,0.557,0.452,1.009,1.01,1.009c0.557,0,1.009-0.452,1.009-1.009
				C9.645,20.306,9.192,19.854,8.635,19.854z M8.635,21.199c-0.186,0-0.336-0.15-0.336-0.336c0-0.187,0.15-0.337,0.336-0.337
				c0.186,0,0.336,0.15,0.336,0.337C8.972,21.049,8.821,21.199,8.635,21.199z" fill="rgba(255,255,255,1)" />
			<path d="M5.271,19.854c-0.558,0-1.01,0.452-1.01,1.01c0,0.557,0.452,1.009,1.01,1.009c0.557,0,1.009-0.452,1.009-1.009
				C6.28,20.306,5.828,19.854,5.271,19.854z M5.271,21.199c-0.186,0-0.337-0.15-0.337-0.336c0-0.187,0.151-0.337,0.337-0.337
				c0.186,0,0.336,0.15,0.336,0.337C5.607,21.049,5.456,21.199,5.271,21.199z" fill="rgba(255,255,255,1)" />
			<path d="M15.365,19.854c-0.558,0-1.01,0.452-1.01,1.01c0,0.557,0.452,1.009,1.01,1.009c0.557,0,1.009-0.452,1.009-1.009
				C16.374,20.306,15.922,19.854,15.365,19.854z M15.365,21.199c-0.187,0-0.337-0.15-0.337-0.336c0-0.187,0.15-0.337,0.337-0.337
				c0.186,0,0.336,0.15,0.336,0.337C15.701,21.049,15.551,21.199,15.365,21.199z" fill="rgba(255,255,255,1)" />
			<path d="M18.729,19.854c-0.557,0-1.009,0.452-1.009,1.01c0,0.557,0.452,1.009,1.009,1.009c0.558,0,1.01-0.452,1.01-1.009
				C19.739,20.306,19.287,19.854,18.729,19.854z M18.729,21.199c-0.186,0-0.336-0.15-0.336-0.336c0-0.187,0.15-0.337,0.336-0.337
				c0.187,0,0.337,0.15,0.337,0.337C19.066,21.049,18.916,21.199,18.729,21.199z" fill="rgba(255,255,255,1)" />
		</g>
	</g>
</g>
</svg>
