<?xml version="1.0" encoding="utf-8"?>
<!-- Generator: Adobe Illustrator 15.0.0, SVG Export Plug-In . SVG Version: 6.00 Build 0)  -->
<!DOCTYPE svg PUBLIC "-//W3C//DTD SVG 1.1//EN" "http://www.w3.org/Graphics/SVG/1.1/DTD/svg11.dtd">
<svg version="1.1" id="圖層_1" xmlns="http://www.w3.org/2000/svg" xmlns:xlink="http://www.w3.org/1999/xlink" x="0px" y="0px"
	 width="24px" height="24px" viewBox="0 0 24 24" enable-background="new 0 0 24 24" xml:space="preserve">
<path d="M18.072,9.315c-0.009-0.174-0.157-0.31-0.332-0.302c-0.175,0.009-0.31,0.157-0.302,0.332l0.05,1.033
	c0.008,0.169,0.146,0.302,0.316,0.302h0.015c0.175-0.007,0.311-0.155,0.303-0.33c0-0.001,0-0.001,0-0.001L18.072,9.315z" fill="rgba(255,255,255,1)" />
<path d="M18.725,2.876c-0.774,0-1.402,0.628-1.403,1.403c0,0.175,0.142,0.316,0.316,0.316s0.317-0.141,0.317-0.316
	c0-0.425,0.344-0.769,0.77-0.77h0.954c0.175,0,0.316-0.142,0.316-0.317c0-0.174-0.142-0.316-0.316-0.316H18.725z" fill="rgba(255,255,255,1)" />
<path d="M16.552,4.595c0.176,0,0.317-0.141,0.317-0.316c0.001-1.024,0.831-1.854,1.855-1.855h1.78c0.175,0,0.316-0.142,0.316-0.317
	c0-0.175-0.142-0.317-0.316-0.317h-1.78c-1.374,0.001-2.488,1.115-2.489,2.489C16.235,4.454,16.377,4.595,16.552,4.595z" fill="rgba(255,255,255,1)" />
<path d="M22.683,21.518h-0.769V14.63c0-0.176-0.143-0.317-0.316-0.317h-2.2l-0.363-7.628c0.114-0.051,0.188-0.165,0.188-0.29V5.309
	c0-0.175-0.143-0.317-0.316-0.317h-3.62c-0.176,0-0.316,0.142-0.316,0.317v1.086c-0.001,0.125,0.073,0.238,0.188,0.29l-0.364,7.628
	h-4.314v-1.482h0.769c0.175,0,0.316-0.142,0.317-0.317v-1.085c-0.001-0.175-0.143-0.316-0.317-0.317H1.87
	c-0.176,0.001-0.317,0.142-0.317,0.317v1.085c0,0.175,0.142,0.317,0.317,0.317h0.769v8.687H1.87c-0.176,0-0.317,0.142-0.317,0.317
	v1.085c0,0.176,0.142,0.317,0.317,0.317h20.813c0.176,0,0.317-0.142,0.317-0.317v-1.085C23,21.659,22.858,21.518,22.683,21.518z
	 M15.602,5.625h2.986v0.453h-2.986V5.625z M15.789,6.712H18.4l0.362,7.602h-3.337L15.789,6.712z M21.28,14.946v6.572H10.478v-6.572
	H21.28z M2.186,11.745h8.743v0.452H2.186V11.745z M3.272,12.831h6.571v8.687H7.96v-3.303c0-0.175-0.142-0.316-0.316-0.316H5.472
	c-0.175,0-0.316,0.142-0.316,0.316v3.303H3.272V12.831z M7.326,21.518H5.788v-2.986h1.538V21.518z M22.366,22.604H2.186v-0.453
	h20.181V22.604z" fill="rgba(255,255,255,1)" />
<path d="M6.014,16.933H7.1c0.176,0,0.316-0.142,0.316-0.316V15.53c0-0.175-0.141-0.316-0.316-0.316H6.014
	c-0.175,0-0.316,0.142-0.316,0.316l0,0v1.086C5.697,16.791,5.839,16.933,6.014,16.933z M6.331,15.847h0.452V16.3H6.331V15.847z" fill="rgba(255,255,255,1)" />
<path d="M11.789,19.092h1.086c0.175,0,0.316-0.142,0.316-0.316v-1.086c0-0.175-0.142-0.317-0.316-0.317h-1.086
	c-0.175,0-0.316,0.143-0.316,0.317v1.086C11.473,18.95,11.613,19.092,11.789,19.092L11.789,19.092z M12.105,18.006h0.452v0.452
	h-0.452V18.006z" fill="rgba(255,255,255,1)" />
<path d="M15.335,19.092h1.086c0.175,0,0.316-0.142,0.316-0.316l0,0v-1.086c0-0.175-0.142-0.317-0.316-0.317h-1.086
	c-0.176,0-0.316,0.143-0.316,0.317v1.086C15.019,18.95,15.159,19.092,15.335,19.092L15.335,19.092z M15.651,18.006h0.453v0.452
	h-0.453V18.006z" fill="rgba(255,255,255,1)" />
<path d="M18.882,19.092h1.086c0.175,0,0.317-0.142,0.317-0.316l0,0v-1.086c0-0.175-0.143-0.317-0.317-0.317h-1.086
	c-0.174,0-0.316,0.143-0.316,0.317v1.086C18.565,18.95,18.707,19.092,18.882,19.092L18.882,19.092z M19.199,18.006h0.452v0.452
	h-0.452V18.006z" fill="rgba(255,255,255,1)" />
</svg>
